<?xml version="1.0" encoding="UTF-8"?>
<svg version="1.1" xmlns="http://www.w3.org/2000/svg" width="512" height="512">
<path d="M0 0 C3.26897847 0.00315141 6.5370414 -0.02034853 9.8059082 -0.0456543 C31.6756875 -0.11112928 52.33860491 2.60764794 72.72973633 10.81567383 C73.440896 11.10023437 74.15205566 11.38479492 74.88476562 11.67797852 C83.23531864 15.18327228 87.74905895 20.14937188 91.60473633 28.31567383 C92.30907877 31.20084125 92.88663658 34.02449833 93.28051758 36.96801758 C95.17920039 40.33411896 97.47317737 40.52743977 101.07910156 41.55273438 C105.2666801 42.81771098 109.08218329 44.78878837 112.97973633 46.75317383 C113.84115234 47.18710449 114.70256836 47.62103516 115.59008789 48.06811523 C145.67345402 63.52655656 173.79938647 85.54987239 194.60473633 112.31567383 C195.39235352 113.29793945 196.1799707 114.28020508 196.99145508 115.29223633 C214.34371848 137.09749259 227.76548314 161.89527416 236.60473633 188.31567383 C236.88397949 189.14905273 237.16322266 189.98243164 237.45092773 190.84106445 C240.44611863 199.94475238 242.93227756 209.11333592 244.85473633 218.50317383 C245.00587891 219.23737549 245.15702148 219.97157715 245.31274414 220.72802734 C248.26652124 236.12867441 248.97823192 251.35855555 248.91723633 267.00317383 C248.91450211 268.45992523 248.91450211 268.45992523 248.91171265 269.94610596 C248.8674506 283.94819412 248.45345403 297.56431658 245.60473633 311.31567383 C245.44376465 312.16468262 245.28279297 313.01369141 245.11694336 313.88842773 C236.65538812 358.26079092 216.35633065 399.25922628 185.60473633 432.31567383 C184.4125242 433.68659013 183.22481634 435.06144007 182.04223633 436.44067383 C143.60770302 480.45441359 83.48720403 507.99415364 25.60473633 512.31567383 C18.40017548 512.66374218 11.19098277 512.65702838 3.97973633 512.62817383 C3.00918304 512.62601868 2.03862976 512.62386353 1.03866577 512.62164307 C-13.28957265 512.57060723 -27.31712149 512.22325821 -41.39526367 509.31567383 C-42.86987061 509.01765869 -42.86987061 509.01765869 -44.37426758 508.71362305 C-99.6799805 497.21134438 -152.45450324 467.31132935 -187.39526367 422.31567383 C-188.19448242 421.31020508 -188.99370117 420.30473633 -189.81713867 419.26879883 C-207.14861473 397.33116403 -220.50957664 372.85658216 -229.39526367 346.31567383 C-229.66773926 345.52241699 -229.94021484 344.72916016 -230.22094727 343.91186523 C-237.20807341 323.32907883 -241.4840632 301.28797359 -241.59838867 279.52270508 C-241.6054483 278.62225464 -241.61250793 277.7218042 -241.61978149 276.79406738 C-241.84864245 239.03648088 -241.84864245 239.03648088 -238.39526367 222.31567383 C-238.19658691 221.33260254 -237.99791016 220.34953125 -237.79321289 219.33666992 C-226.28655518 164.0099015 -196.38292809 111.28507684 -151.39526367 76.31567383 C-150.41299805 75.52805664 -149.43073242 74.74043945 -148.41870117 73.92895508 C-135.89390869 63.96193173 -122.56791828 55.74167118 -108.39526367 48.31567383 C-107.345 47.76355225 -106.29473633 47.21143066 -105.21264648 46.64257812 C-100.60889078 44.27584316 -96.23733901 42.17452461 -91.25073242 40.75708008 C-87.95959871 39.80807956 -87.95959871 39.80807956 -86.07104492 36.96801758 C-85.95116211 36.07211914 -85.8312793 35.1762207 -85.70776367 34.25317383 C-84.01685757 25.79864332 -80.54457403 19.36357212 -73.3581543 14.48950195 C-70.05774522 12.51582448 -66.61289788 11.10479941 -63.02026367 9.75317383 C-62.2393335 9.45580322 -61.45840332 9.15843262 -60.65380859 8.85205078 C-52.74233138 5.93151452 -44.70701861 3.76390272 -36.39526367 2.31567383 C-34.91521851 2.04968384 -34.91521851 2.04968384 -33.40527344 1.77832031 C-22.28599947 0.02879237 -11.2337945 -0.02257629 0 0 Z " fill="#E9EEFE" transform="translate(252.395263671875,-0.315673828125)"/>
<path d="M0 0 C3.26897847 0.00315141 6.5370414 -0.02034853 9.8059082 -0.0456543 C31.6756875 -0.11112928 52.33860491 2.60764794 72.72973633 10.81567383 C73.440896 11.10023437 74.15205566 11.38479492 74.88476562 11.67797852 C84.14638814 15.56570997 88.28926533 21.4592798 92.58129883 30.33520508 C94.02830128 34.04040833 94.65979722 37.50353587 94.87426758 41.46020508 C95.51322328 52.40392182 97.46824283 57.64090244 105.26000977 65.7878418 C125.53659198 88.82539653 129.82015983 121.7313065 129.66723633 151.00317383 C129.6622097 152.68741728 129.65764886 154.3716622 129.65356445 156.0559082 C129.6426546 160.14253336 129.62545454 164.22908711 129.60473633 168.31567383 C128.56687988 168.2939209 127.52902344 168.27216797 126.4597168 168.24975586 C125.08879215 168.23216487 123.71786064 168.21510278 122.34692383 168.19848633 C121.6639624 168.18277588 120.98100098 168.16706543 120.27734375 168.15087891 C116.58190789 168.11726366 113.90854387 168.26192741 110.72973633 170.19067383 C107.60473633 171.31567383 107.60473633 171.31567383 105.44067383 170.46020508 C102.96192397 168.91409522 100.80794037 167.23320488 98.60473633 165.31567383 C97.6553418 164.49196289 97.6553418 164.49196289 96.68676758 163.65161133 C91.7832467 158.7372659 89.58959885 152.93675106 87.20239258 146.53051758 C83.0682214 135.44043933 78.37474794 124.0674911 71.60473633 114.31567383 C70.95311523 113.37208008 70.95311523 113.37208008 70.28833008 112.40942383 C63.6415139 103.77424383 53.10104638 98.53935616 42.60473633 96.31567383 C36.05946361 95.61067505 30.24101658 96.02963319 23.91723633 97.81567383 C10.2979718 101.30779294 -6.1940634 100.96776897 -19.68432617 97.05004883 C-24.17947663 95.83234236 -28.76011156 95.58505141 -33.39526367 95.31567383 C-33.68280518 96.04310791 -33.97034668 96.77054199 -34.26660156 97.52001953 C-35.28790203 100.04974301 -36.35548488 102.54914681 -37.45385742 105.04614258 C-37.83993164 105.93237305 -38.22600586 106.81860352 -38.6237793 107.73168945 C-39.42198829 109.56150942 -40.22399907 111.38967622 -41.0300293 113.21606445 C-43.60432425 119.14850789 -45.68425994 125.079061 -47.39526367 131.31567383 C-46.45424805 131.26926758 -45.51323242 131.22286133 -44.54370117 131.17504883 C-33.10359701 130.84345161 -33.10359701 130.84345161 -29.58276367 133.19067383 C-26.99114002 135.70825109 -26.46379849 136.54465711 -26.14526367 140.12817383 C-26.42990301 143.75732539 -27.17312273 145.45863548 -29.39526367 148.31567383 C-32.26422457 150.07620719 -34.37920403 150.55876039 -37.72338867 150.51098633 C-38.52260742 150.50454102 -39.32182617 150.4980957 -40.14526367 150.49145508 C-41.38276367 150.46631836 -41.38276367 150.46631836 -42.64526367 150.44067383 C-43.48573242 150.43165039 -44.32620117 150.42262695 -45.19213867 150.41333008 C-47.25996972 150.389832 -49.32765362 150.3539629 -51.39526367 150.31567383 C-51.89026367 154.27567383 -51.89026367 154.27567383 -52.39526367 158.31567383 C-51.66001465 158.29472656 -50.92476563 158.2737793 -50.16723633 158.25219727 C-46.78505533 158.16824053 -43.40309455 158.11676297 -40.02026367 158.06567383 C-38.86397461 158.0321582 -37.70768555 157.99864258 -36.51635742 157.96411133 C-27.70630734 157.86456274 -20.20689765 159.1603982 -13.08276367 164.62817383 C-10.39526367 167.31567383 -10.39526367 167.31567383 -9.52026367 169.19067383 C-8.34373418 171.62216812 -7.65584423 172.77516236 -5.39526367 174.31567383 C-0.99845811 175.01437297 3.43998889 174.70310463 7.86645508 174.46411133 C11.60473633 174.31567383 11.60473633 174.31567383 13.60473633 175.31567383 C13.83161133 174.61442383 14.05848633 173.91317383 14.29223633 173.19067383 C17.6812419 165.76713782 22.97425465 161.76698811 30.56854248 158.88754272 C37.09422514 157.0547924 44.19047118 157.52288577 50.9050293 157.64331055 C53.73186757 157.69070956 56.55494177 157.68437411 59.38208008 157.67114258 C69.77293929 157.70286287 78.3969847 158.02088494 87.19067383 164.10473633 C94.77145361 171.88413916 97.22905226 179.39358224 97.15258789 190.19799805 C96.74767961 199.4129269 93.2370377 208.04818818 87.60473633 215.31567383 C87.04786133 216.14067383 86.49098633 216.96567383 85.91723633 217.81567383 C78.40942007 225.93223195 67.38737358 230.72957399 56.44067383 231.55395508 C43.40611871 231.83347714 33.00721639 228.28980061 23.44458008 219.28051758 C13.68439183 208.93654237 11.67093844 199.03308015 10.60473633 185.31567383 C5.98473633 185.31567383 1.36473633 185.31567383 -3.39526367 185.31567383 C-3.45713867 187.02754883 -3.51901367 188.73942383 -3.58276367 190.50317383 C-4.63266248 202.69925867 -9.54016824 213.00044855 -18.52807617 221.28051758 C-26.93146712 228.20526308 -34.54878868 230.91019813 -45.39526367 231.31567383 C-42.26709817 242.2342836 -39.14629014 252.97273124 -34.39526367 263.31567383 C-33.70529297 262.82868011 -33.01532227 262.3416864 -32.30444336 261.8399353 C-28.87625254 260.04373852 -26.70279068 259.93551572 -22.84838867 259.92749023 C-21.54353516 259.91803375 -20.23868164 259.90857727 -18.89428711 259.89883423 C-17.47794286 259.90420424 -16.0616014 259.91035727 -14.64526367 259.91723633 C-13.18465022 259.91521391 -11.72403775 259.91230107 -10.26342773 259.90853882 C-7.20701453 259.90412334 -4.15086491 259.91052121 -1.09448242 259.92456055 C2.81627384 259.9416523 6.72641238 259.93180691 10.637146 259.91384315 C13.65182113 259.90298413 16.66635067 259.9064613 19.68103027 259.91422653 C21.12268141 259.9162227 22.56434593 259.9137898 24.00598145 259.90678787 C26.02327204 259.89913939 28.0406092 259.91287089 30.05786133 259.92749023 C31.20416016 259.92987701 32.35045898 259.93226379 33.53149414 259.9347229 C36.98615856 260.36295391 38.83529579 261.23687701 41.60473633 263.31567383 C44.08145524 267.0307522 43.80893734 268.52924661 43.19458008 272.78833008 C41.08890698 281.81065122 35.75391889 288.60084543 28.60473633 294.31567383 C25.37592027 296.28270887 22.09708981 297.87594532 18.60473633 299.31567383 C17.88286133 299.68176758 17.16098633 300.04786133 16.41723633 300.42504883 C12.23902399 301.7481494 8.21104061 301.64428442 3.85473633 301.62817383 C2.99879883 301.64428711 2.14286133 301.66040039 1.26098633 301.67700195 C-4.79912318 301.68159295 -9.77733052 300.56949856 -15.39526367 298.31567383 C-5.31870682 314.78036102 9.31172914 328.66917024 26.60473633 337.31567383 C26.60473633 337.97567383 26.60473633 338.63567383 26.60473633 339.31567383 C25.23181765 339.80077176 23.85626929 340.27842896 22.47973633 340.75317383 C21.33118164 341.15342773 21.33118164 341.15342773 20.15942383 341.56176758 C4.48031437 346.18878306 -11.75546568 343.38463807 -26.08276367 336.12817383 C-57.13450368 318.38432239 -77.02882846 284.18756431 -88.39526367 251.31567383 C-89.12083649 248.39023089 -89.81127612 245.47203905 -90.40673828 242.51733398 C-91.22018033 240.08147662 -91.22018033 240.08147662 -93.82788086 239.11035156 C-95.09873535 238.71698608 -95.09873535 238.71698608 -96.39526367 238.31567383 C-113.43257628 227.69600364 -123.84928811 211.65018754 -128.91772461 192.45776367 C-130.38650157 185.86929277 -130.75540885 179.17641065 -127.58276367 173.06567383 C-125.39526367 170.31567383 -125.39526367 170.31567383 -122.39526367 169.31567383 C-122.41097412 168.15745117 -122.42668457 166.99922852 -122.44287109 165.8059082 C-122.49795865 161.42984215 -122.53189456 157.05380538 -122.56005859 152.67749023 C-122.57496846 150.79820571 -122.59530354 148.91895486 -122.62158203 147.03979492 C-122.78496392 135.03923475 -122.12158654 124.02658293 -119.39526367 112.31567383 C-119.12584961 111.05932129 -118.85643555 109.80296875 -118.57885742 108.50854492 C-114.73380106 91.0875206 -105.6284878 72.51707768 -92.95776367 59.81567383 C-89.53249014 56.00458651 -89.38715221 51.66176997 -88.80932617 46.72192383 C-87.44448455 35.49417014 -84.31515382 23.86327319 -75.39526367 16.31567383 C-74.5831543 15.61571289 -74.5831543 15.61571289 -73.75463867 14.90161133 C-63.19477647 7.80342581 -48.77585525 4.47285129 -36.39526367 2.31567383 C-34.91521851 2.04968384 -34.91521851 2.04968384 -33.40527344 1.77832031 C-22.28599947 0.02879237 -11.2337945 -0.02257629 0 0 Z " fill="#2D3C6B" transform="translate(252.395263671875,-0.315673828125)"/>
<path d="M0 0 C6.42026706 1.95935764 12.38372723 4.41786973 18.375 7.4375 C19.23641602 7.87143066 20.09783203 8.30536133 20.98535156 8.75244141 C51.0687177 24.21088274 79.19465014 46.23419856 100 73 C100.78761719 73.98226562 101.57523438 74.96453125 102.38671875 75.9765625 C119.73898215 97.78181877 133.16074682 122.57960034 142 149 C142.27924316 149.83337891 142.55848633 150.66675781 142.84619141 151.52539062 C145.8413823 160.62907856 148.32754123 169.79766209 150.25 179.1875 C150.40114258 179.92170166 150.55228516 180.65590332 150.70800781 181.41235352 C153.66178491 196.81300058 154.3734956 212.04288172 154.3125 227.6875 C154.31067719 228.6586676 154.30885437 229.62983521 154.30697632 230.63043213 C154.26271428 244.6325203 153.8487177 258.24864275 151 272 C150.83902832 272.84900879 150.67805664 273.69801758 150.51220703 274.57275391 C143.77787755 309.88755184 129.65906607 347.38429831 106 375 C105.49855469 374.79246094 104.99710938 374.58492188 104.48046875 374.37109375 C96.21883187 371.00732678 87.84413509 367.94648296 79.46020508 364.90332031 C77.82210806 364.30185569 76.18900423 363.6866109 74.5612793 363.05761719 C66.10466238 359.84322144 57.42845939 357.53605798 48.6875 355.25 C47.86852234 355.03445465 47.04954468 354.8189093 46.20574951 354.59683228 C29.23228425 350.14656976 12.12760304 346.46931001 -5.06933594 343.00146484 C-14.7227704 341.04943352 -24.35965414 339.0154769 -34 337 C-34.1626827 328.66339413 -34.28681386 320.32745877 -34.3626852 311.98965454 C-34.3991131 308.1173672 -34.44846468 304.24617108 -34.52807617 300.37451172 C-34.60452025 296.63318272 -34.64606873 292.89289847 -34.6641407 289.15084839 C-34.67700713 287.72825686 -34.70213374 286.30571818 -34.7401104 284.88357544 C-35.06103489 272.3597426 -35.06103489 272.3597426 -30.61694336 267.29272461 C-29.41672144 266.18921904 -28.21141466 265.09120653 -27 264 C-25.22756547 261.60645173 -23.67125868 259.10688994 -22.125 256.5625 C-21.70355713 255.87422119 -21.28211426 255.18594238 -20.84790039 254.47680664 C-12.78911814 241.15908473 -6.440391 227.69186151 -0.9453125 213.1171875 C-0.60902832 212.23587158 -0.27274414 211.35455566 0.07373047 210.4465332 C0.6467407 208.9330552 1.20594981 207.41417368 1.74267578 205.88745117 C3.36753716 201.55581967 5.09858764 199.77071761 9.125 197.5625 C25.49508378 187.84411253 35.11903889 172.45836387 40.3046875 154.30859375 C41.74481333 147.45586018 42.57378697 140.10302862 39.125 133.75 C37.29020301 130.96414351 37.29020301 130.96414351 35 130 C34.98018066 128.96818604 34.96036133 127.93637207 34.93994141 126.87329102 C34.86249138 122.95723503 34.77402097 119.04148545 34.68261719 115.12573242 C34.64489129 113.44740959 34.60995329 111.76902121 34.578125 110.09057617 C34.29414463 95.28366216 33.92890884 80.21828122 29.375 66 C29.11702637 65.17242187 28.85905273 64.34484375 28.59326172 63.4921875 C24.08088008 49.5637033 17.67201648 35.13330861 7.53125 24.3828125 C0.21132437 16.57643612 -0.32235597 10.27670821 0 0 Z " fill="#FEC839" transform="translate(347,39)"/>
<path d="M0 0 C-0.08750555 2.22988284 -0.19569061 4.45896005 -0.3125 6.6875 C-0.37050781 7.92886719 -0.42851562 9.17023437 -0.48828125 10.44921875 C-1.35411183 16.45715764 -4.71616953 19.92991905 -8.5 24.5 C-24.9617048 45.28693704 -34.10831885 72.16093009 -34.140625 98.57421875 C-34.15893281 100.39389293 -34.1785012 102.21355479 -34.19921875 104.03320312 C-34.22828128 106.87074089 -34.25000341 109.70746912 -34.25048828 112.54516602 C-34.25382008 115.305562 -34.28831684 118.06413899 -34.328125 120.82421875 C-34.3210553 121.67014084 -34.3139856 122.51606293 -34.30670166 123.38761902 C-34.39746951 127.78159056 -34.51450589 129.43491277 -37.47949219 132.88598633 C-38.72714355 133.9324231 -38.72714355 133.9324231 -40 135 C-44.124904 147.37471199 -38.93932191 160.81425851 -33.546875 172.01953125 C-32.14789429 174.46006078 -30.65273601 176.72449389 -29 179 C-28.10667969 180.25683594 -28.10667969 180.25683594 -27.1953125 181.5390625 C-21.92757149 188.54156159 -15.69680603 195.03950284 -7.5 198.4609375 C-2.08496918 201.50611495 -0.94228201 207.69748534 0.9375 213.25 C1.79224444 215.61673432 2.65292144 217.98133454 3.51953125 220.34375 C4.14722412 222.06271484 4.14722412 222.06271484 4.78759766 223.81640625 C7.32760025 230.48608685 10.58073585 236.74723514 14 243 C14.32178223 243.60199219 14.64356445 244.20398438 14.97509766 244.82421875 C19.92863519 254.06622414 25.52234648 262.9766205 32.60249329 270.762146 C34.46928944 273.75148208 34.3613137 275.81754683 34.34057617 279.32910156 C34.34034958 280.61012756 34.34012299 281.89115356 34.33988953 283.21099854 C34.32457074 284.60421093 34.30892278 285.99741974 34.29296875 287.390625 C34.28737097 288.81979934 34.28310173 290.24897946 34.28010559 291.67816162 C34.26867101 295.4331461 34.2392162 299.18778046 34.20599365 302.94262695 C34.1752626 306.77680729 34.1615938 310.61104441 34.14648438 314.4453125 C34.1143448 321.96370099 34.0631657 329.48180137 34 337 C29.5943999 337.95484711 25.18790345 338.90549575 20.78125 339.85546875 C19.55051758 340.1222644 18.31978516 340.38906006 17.05175781 340.66394043 C9.22274387 342.34913826 1.38078533 343.89065625 -6.5 345.3125 C-29.86970306 349.7129347 -52.82048654 355.66094925 -75.375 363.1875 C-76.11482117 363.43339874 -76.85464233 363.67929749 -77.61688232 363.93264771 C-87.29490957 367.16998451 -96.68228755 370.83319243 -106 375 C-115.16503708 363.41741377 -122.24211129 351.11055118 -129 338 C-129.37753418 337.28682617 -129.75506836 336.57365234 -130.14404297 335.83886719 C-147.51108817 302.89939864 -154.46020247 265.28837401 -154.3125 228.375 C-154.31034485 227.40444672 -154.3081897 226.43389343 -154.30596924 225.43392944 C-154.2549334 211.10569102 -153.90758438 197.07814218 -151 183 C-150.80132324 182.01692871 -150.60264648 181.03385742 -150.39794922 180.02099609 C-138.89129151 124.69422767 -108.98766442 71.96940301 -64 37 C-62.52660156 35.81857422 -62.52660156 35.81857422 -61.0234375 34.61328125 C-17.52758625 0 -17.52758625 0 0 0 Z " fill="#FEC839" transform="translate(165,39)"/>
<path d="M0 0 C5.02895611 0.17907262 9.47336115 0.71835316 14.3203125 2.09375 C28.10129442 5.56794712 44.31964126 5.13008823 57.9609375 1.27734375 C69.99413074 -1.66373002 81.11264749 1.62433409 91.5078125 7.78125 C107.2051126 18.50848804 113.78612865 36.49716986 119.95654297 53.77539062 C123.2123026 62.47033049 127.82974075 69.43193301 135.8828125 74.34375 C137.83513663 75.27078765 137.83513663 75.27078765 139.7578125 75.59375 C141.79345383 74.66845849 143.78901927 73.65386943 145.7578125 72.59375 C152.07682092 71.8780612 158.54096479 71.55069302 163.7578125 75.59375 C167.95223338 80.67120686 168.48387232 85.28061425 168.2734375 91.7890625 C166.74625512 103.05781737 162.45795878 114.39715499 155.7578125 123.59375 C154.8296875 124.86798828 154.8296875 124.86798828 153.8828125 126.16796875 C148.41929775 133.30681908 142.86887648 139.06860279 134.78515625 143.09765625 C128.64215345 146.74985633 127.21107996 151.16271768 125.1953125 157.78125 C124.4595076 159.94358866 123.71722459 162.10373286 122.96875 164.26171875 C122.60362305 165.33212402 122.23849609 166.4025293 121.86230469 167.50537109 C115.67966244 184.79326333 105.8443749 203.5071876 92.7578125 216.59375 C92.68138948 218.57684371 92.67490883 220.5626583 92.6953125 222.54711914 C92.7044165 223.82257095 92.71352051 225.09802277 92.72290039 226.41212463 C92.72919464 227.09871218 92.73548889 227.78529972 92.74197388 228.49269295 C92.76892198 232.1272822 92.7590646 235.76182318 92.75390625 239.39648438 C92.74770938 244.02288237 92.75280663 248.64806206 92.80908203 253.27416992 C92.85355923 257.01076648 92.85378139 260.74511779 92.82495117 264.48184013 C92.82188398 265.90152976 92.83464158 267.32135075 92.86401367 268.74073982 C93.080363 279.81519293 93.080363 279.81519293 89.80807495 284.21574402 C87.55030015 286.25815214 85.32135639 287.95796845 82.7578125 289.59375 C82.14374542 290.01086243 81.52967834 290.42797485 80.89700317 290.85772705 C77.01600379 293.35854363 72.8443495 295.44923846 68.7578125 297.59375 C67.84 298.09132813 66.9221875 298.58890625 65.9765625 299.1015625 C49.99646247 307.13974535 29.45298989 308.15391102 12.48046875 302.98046875 C0.72098377 298.59996805 -9.63301566 292.67310344 -19.2421875 284.59375 C-20.04702324 283.97943367 -20.04702324 283.97943367 -20.86811829 283.35270691 C-22.89665243 280.75596425 -22.60230474 278.73332981 -22.58276367 275.4699707 C-22.58253708 274.20888992 -22.58231049 272.94780914 -22.58207703 271.64851379 C-22.56675713 270.27218268 -22.55110914 268.89585518 -22.53515625 267.51953125 C-22.5295601 266.11134798 -22.52529009 264.70315886 -22.52229309 263.29496765 C-22.51084568 259.59093056 -22.48137985 255.8872471 -22.44818115 252.18334961 C-22.41747776 248.40288069 -22.40378721 244.62235457 -22.38867188 240.84179688 C-22.35650966 233.42562014 -22.30531505 226.00973464 -22.2421875 218.59375 C-21.12880843 219.5408543 -20.01646014 220.48917041 -18.90454102 221.43798828 C-18.28499039 221.96595001 -17.66543976 222.49391174 -17.02711487 223.03787231 C-14.66315918 225.09847487 -12.43406318 227.28940109 -10.1796875 229.46875 C4.27374688 242.63346938 21.23325547 248.40767044 40.61474609 247.75195312 C44.69825532 247.45050473 48.5312103 246.42515122 52.4375 245.25 C54.7578125 244.59375 54.7578125 244.59375 57.7578125 244.59375 C57.7578125 243.93375 57.7578125 243.27375 57.7578125 242.59375 C56.901875 242.35140625 56.0459375 242.1090625 55.1640625 241.859375 C51.45477891 240.48115495 48.44110268 238.64076772 45.2578125 236.34375 C44.35748291 235.69490845 44.35748291 235.69490845 43.43896484 235.03295898 C32.76707762 227.09221959 22.60407886 217.07506625 15.7578125 205.59375 C15.7578125 204.93375 15.7578125 204.27375 15.7578125 203.59375 C16.29365967 203.73304932 16.82950684 203.87234863 17.3815918 204.01586914 C29.14945951 206.87880384 43.07373694 207.81666407 54.14453125 202.2734375 C63.37704817 196.3392338 71.14448925 188.52219268 73.7578125 177.59375 C74.25823396 174.50913029 74.25823396 174.50913029 73.7578125 171.59375 C71.8907134 169.29099444 70.40133509 167.91551129 67.7578125 166.59375 C65.696412 166.48675303 63.6315219 166.44487339 61.56738281 166.43261719 C60.2655304 166.42300964 58.96367798 166.4134021 57.62237549 166.40350342 C56.1935646 166.39865468 54.76475169 166.39437604 53.3359375 166.390625 C51.87343341 166.38487249 50.41092934 166.37911477 48.94842529 166.37335205 C45.8783737 166.36283919 42.80834831 166.35699892 39.73828125 166.35351562 C35.81302515 166.34804107 31.88811773 166.32403688 27.96297073 166.29554367 C24.93970751 166.27687316 21.91652736 166.27170928 18.89321136 166.27017975 C17.446786 166.26716083 16.00036184 166.25915802 14.55399323 166.24599457 C12.52467261 166.22884948 10.49520806 166.23267131 8.46582031 166.23730469 C7.31269348 166.23365906 6.15956665 166.23001343 4.97149658 166.22625732 C1.34782268 166.64063334 -1.09622973 167.79239287 -4.2421875 169.59375 C-5.54917471 166.16188677 -6.83480783 162.72237606 -8.1171875 159.28125 C-8.48199219 158.32412109 -8.84679687 157.36699219 -9.22265625 156.38085938 C-11.64196219 149.84873334 -13.23201207 143.48537252 -14.2421875 136.59375 C-13.41976562 136.43519531 -12.59734375 136.27664062 -11.75 136.11328125 C0.30468637 133.59376828 10.98634508 129.48534831 18.48046875 119.23828125 C23.87083458 110.6958096 26.01377652 103.05271427 26.546875 93 C26.7578125 90.59375 26.7578125 90.59375 27.7578125 89.59375 C30.08941305 89.49465698 32.42411192 89.46404496 34.7578125 89.46875 C36.0365625 89.46617187 37.3153125 89.46359375 38.6328125 89.4609375 C41.7578125 89.59375 41.7578125 89.59375 42.7578125 90.59375 C42.93337214 92.45087489 43.10445746 94.30855225 43.25073242 96.16821289 C43.98322094 104.82848811 45.596034 111.39348623 50.7578125 118.59375 C51.28503906 119.33109375 51.81226563 120.0684375 52.35546875 120.828125 C58.32652151 128.33781783 67.28067428 133.84412448 76.7578125 135.59375 C90.97518485 136.8094873 101.67312564 133.50936005 113.4453125 125.84375 C121.56437108 117.94412543 126.78757025 106.80244068 127.30102539 95.48242188 C127.38610345 86.3241454 125.84524398 78.69488464 119.6328125 71.71875 C110.20602284 63.61024897 99.55379546 63.90700983 87.71826172 63.96240234 C84.89523596 63.96872219 82.07641553 63.92171511 79.25390625 63.87109375 C69.00421624 63.79807706 60.17412492 64.00714932 51.7578125 70.59375 C49.49454097 73.15617257 47.92571346 75.18837267 46.6171875 78.34765625 C44.39544823 81.03147994 43.69437225 81.03844405 40.3359375 81.43359375 C38.5611485 81.50780735 36.78413807 81.53839851 35.0078125 81.53125 C34.09273926 81.53084717 33.17766602 81.53044434 32.23486328 81.5300293 C25.54949402 81.24327199 25.54949402 81.24327199 22.234375 78.5234375 C20.6328125 75.90625 20.6328125 75.90625 19.265625 73.1484375 C16.22467269 67.99615043 10.19722835 66.40688862 4.7578125 64.59375 C2.7671681 64.44388589 0.77245859 64.34546962 -1.22265625 64.27734375 C-2.96772461 64.21450195 -2.96772461 64.21450195 -4.74804688 64.15039062 C-5.96298828 64.11107422 -7.17792969 64.07175781 -8.4296875 64.03125 C-9.65623047 63.98806641 -10.88277344 63.94488281 -12.14648438 63.90039062 C-15.17827131 63.7942191 -18.21014065 63.69217048 -21.2421875 63.59375 C-20.9121875 60.95375 -20.5821875 58.31375 -20.2421875 55.59375 C-18.98921875 55.54476562 -17.73625 55.49578125 -16.4453125 55.4453125 C-14.79424929 55.37026417 -13.14320869 55.29471723 -11.4921875 55.21875 C-10.6671875 55.1878125 -9.8421875 55.156875 -8.9921875 55.125 C-8.19296875 55.08632812 -7.39375 55.04765625 -6.5703125 55.0078125 C-5.8371582 54.9763916 -5.10400391 54.9449707 -4.34863281 54.91259766 C-1.96006275 54.55104544 -0.30863233 53.83238887 1.7578125 52.59375 C4.05333235 49.38002221 4.24158183 46.46390465 3.7578125 42.59375 C1.8907134 40.29099444 0.40133509 38.91551129 -2.2421875 37.59375 C-4.61341996 37.36345044 -6.98960693 37.18255058 -9.3671875 37.03125 C-10.64851562 36.94746094 -11.92984375 36.86367187 -13.25 36.77734375 C-14.73113281 36.68646484 -14.73113281 36.68646484 -16.2421875 36.59375 C-15.08138026 29.14062252 -12.86813446 22.65544682 -9.8046875 15.78125 C-9.40958984 14.86666016 -9.01449219 13.95207031 -8.60742188 13.00976562 C-3.30331485 0.8747454 -3.30331485 0.8747454 0 0 Z " fill="#F6E4CB" transform="translate(221.2421875,94.40625)"/>
<path d="M0 0 C-1.29339421 3.27208079 -2.64195884 6.50994816 -4.05859375 9.73046875 C-4.44466797 10.61669922 -4.83074219 11.50292969 -5.22851562 12.41601562 C-6.02672462 14.24583559 -6.8287354 16.0740024 -7.63476562 17.90039062 C-10.20906058 23.83283407 -12.28899627 29.76338717 -14 36 C-13.05898437 35.95359375 -12.11796875 35.9071875 -11.1484375 35.859375 C0.29166667 35.52777778 0.29166667 35.52777778 3.8125 37.875 C6.40412365 40.39257726 6.93146518 41.22898328 7.25 44.8125 C6.96536066 48.44165156 6.22214094 50.14296165 4 53 C1.13103911 54.76053336 -0.98394036 55.24308657 -4.328125 55.1953125 C-5.12734375 55.18886719 -5.9265625 55.18242187 -6.75 55.17578125 C-7.575 55.15902344 -8.4 55.14226562 -9.25 55.125 C-10.09046875 55.11597656 -10.9309375 55.10695312 -11.796875 55.09765625 C-13.86470604 55.07415817 -15.93238995 55.03828908 -18 55 C-18.33 57.64 -18.66 60.28 -19 63 C-18.26475098 62.97905273 -17.52950195 62.95810547 -16.77197266 62.93652344 C-13.38979165 62.85256671 -10.00783088 62.80108914 -6.625 62.75 C-5.46871094 62.71648437 -4.31242187 62.68296875 -3.12109375 62.6484375 C5.68895633 62.54888891 13.18836602 63.84472437 20.3125 69.3125 C23 72 23 72 23.875 73.875 C25.05152949 76.30649429 25.73941944 77.45948854 28 79 C32.39680556 79.69869914 36.83525256 79.3874308 41.26171875 79.1484375 C45 79 45 79 47 80 C47.3403125 78.948125 47.3403125 78.948125 47.6875 77.875 C51.07650557 70.45146399 56.36951832 66.45131428 63.96380615 63.5718689 C70.48948881 61.73911857 77.58573485 62.20721194 84.30029297 62.32763672 C87.12713124 62.37503574 89.95020544 62.36870029 92.77734375 62.35546875 C103.16820296 62.38718905 111.79224837 62.70521111 120.5859375 68.7890625 C128.16671728 76.56846533 130.62431593 84.07790841 130.54785156 94.88232422 C130.14294328 104.09725307 126.63230138 112.73251435 121 120 C120.443125 120.825 119.88625 121.65 119.3125 122.5 C111.80468374 130.61655812 100.78263725 135.41390016 89.8359375 136.23828125 C76.80138239 136.51780331 66.40248006 132.97412678 56.83984375 123.96484375 C47.07965551 113.62086855 45.06620212 103.71740632 44 90 C39.38 90 34.76 90 30 90 C29.938125 91.711875 29.87625 93.42375 29.8125 95.1875 C28.76260119 107.38358484 23.85509543 117.68477472 14.8671875 125.96484375 C6.46379655 132.88958925 -1.15352501 135.5945243 -12 136 C-8.8718345 146.91860977 -5.75102647 157.65705742 -1 168 C-0.3100293 167.51300629 0.37994141 167.02601257 1.09082031 166.52426147 C4.51901113 164.72806469 6.692473 164.6198419 10.546875 164.61181641 C11.85172852 164.60235992 13.15658203 164.59290344 14.50097656 164.5831604 C15.91732081 164.58853041 17.33366228 164.59468344 18.75 164.6015625 C20.21061346 164.59954008 21.67122593 164.59662724 23.13183594 164.59286499 C26.18824915 164.58844951 29.24439876 164.59484738 32.30078125 164.60888672 C36.21153751 164.62597847 40.12167605 164.61613308 44.03240967 164.59816933 C47.0470848 164.5873103 50.06161434 164.59078747 53.07629395 164.5985527 C54.51794509 164.60054887 55.9596096 164.59811597 57.40124512 164.59111404 C59.41853572 164.58346557 61.43587288 164.59719706 63.453125 164.61181641 C64.59942383 164.61420319 65.74572266 164.61658997 66.92675781 164.61904907 C70.38142223 165.04728009 72.23055946 165.92120319 75 168 C77.47671892 171.71507837 77.20420101 173.21357278 76.58984375 177.47265625 C74.48417065 186.4949774 69.14918256 193.2851716 62 199 C58.77118395 200.96703504 55.49235348 202.56027149 52 204 C51.278125 204.36609375 50.55625 204.7321875 49.8125 205.109375 C45.63428766 206.43247557 41.60630429 206.32861059 37.25 206.3125 C36.3940625 206.32861328 35.538125 206.34472656 34.65625 206.36132812 C28.59614049 206.36591912 23.61793315 205.25382473 18 203 C28.07655685 219.46468719 42.70699282 233.35349641 60 242 C60 242.66 60 243.32 60 244 C58.62708132 244.48509793 57.25153297 244.96275513 55.875 245.4375 C55.10929688 245.70433594 54.34359375 245.97117187 53.5546875 246.24609375 C37.87557804 250.87310923 21.63979799 248.06896424 7.3125 240.8125 C-23.73924001 223.06864856 -43.63356479 188.87189048 -55 156 C-55.72557282 153.07455706 -56.41601245 150.15636522 -57.01147461 147.20166016 C-57.82491666 144.76580279 -57.82491666 144.76580279 -60.43261719 143.79467773 C-61.70347168 143.40131226 -61.70347168 143.40131226 -63 143 C-80.03731261 132.38032981 -90.45402444 116.33451371 -95.52246094 97.14208984 C-96.96812749 90.65728498 -97.37175173 83.93055589 -94.3125 77.875 C-91.33513619 74.17341255 -88.86777375 72.25641039 -84.09765625 71.6015625 C-78.102215 71.64785934 -74.35008281 72.12922386 -69 75 C-63.40410372 73.969177 -57.72514206 69.38855408 -54.44458008 64.84643555 C-50.88095225 58.85170167 -48.12172809 52.81555196 -45.625 46.3125 C-38.46195376 28.35043556 -31.01259478 12.33026492 -13 3 C-8.49535829 1.07435163 -4.92398723 0 0 0 Z " fill="#F1D4AB" transform="translate(219,95)"/>
<path d="M0 0 C6.42026706 1.95935764 12.38372723 4.41786973 18.375 7.4375 C19.66712402 8.088396 19.66712402 8.088396 20.98535156 8.75244141 C51.0687177 24.21088274 79.19465014 46.23419856 100 73 C100.78761719 73.98226562 101.57523437 74.96453125 102.38671875 75.9765625 C119.73898215 97.78181877 133.16074682 122.57960034 142 149 C142.27924316 149.83337891 142.55848633 150.66675781 142.84619141 151.52539062 C145.8413823 160.62907856 148.32754123 169.79766209 150.25 179.1875 C150.40114258 179.92170166 150.55228516 180.65590332 150.70800781 181.41235352 C153.66178491 196.81300058 154.3734956 212.04288172 154.3125 227.6875 C154.31067719 228.6586676 154.30885437 229.62983521 154.30697632 230.63043213 C154.26271428 244.6325203 153.8487177 258.24864275 151 272 C150.83902832 272.84900879 150.67805664 273.69801758 150.51220703 274.57275391 C143.77787755 309.88755184 129.65906607 347.38429831 106 375 C105.49855469 374.79246094 104.99710937 374.58492188 104.48046875 374.37109375 C96.22272278 371.00891098 87.85178939 367.95056334 79.47241211 364.90722656 C77.79413403 364.29139943 76.1205437 363.66267429 74.45141602 363.02246094 C67.03194346 360.2166008 59.50090846 358.18142768 51.8125 356.25 C50.57435547 355.93417969 49.33621094 355.61835938 48.06054688 355.29296875 C45.04159222 354.52365984 42.02144833 353.75944426 39 353 C39.58773193 352.73606445 40.17546387 352.47212891 40.78100586 352.20019531 C44.65264589 350.1061275 47.48315116 346.85428137 50.5625 343.75 C51.27486816 343.03271729 51.98723633 342.31543457 52.72119141 341.57641602 C59.05074468 335.10771247 64.71999945 328.34321141 70 321 C70.62116699 320.14535156 70.62116699 320.14535156 71.25488281 319.2734375 C101.33308448 277.44996768 113.82217756 224.38941431 106.40234375 173.46142578 C99.48493616 131.14267378 80.51608389 93.92161169 51 63 C50.19949219 62.14664063 49.39898437 61.29328125 48.57421875 60.4140625 C40.22632073 51.75192282 30.92486234 44.36141211 20.6875 38.0625 C15.17974121 34.50081599 11.73406833 30.30344416 8.03515625 24.9296875 C6.03653798 21.89386766 6.03653798 21.89386766 3.296875 19.15625 C0.39108882 15.1632649 0.2266223 12.43269617 0.1875 7.625 C0.16236328 6.88894531 0.13722656 6.15289062 0.11132812 5.39453125 C0.05296407 3.59691851 0.02349462 1.7984065 0 0 Z " fill="#FEDC40" transform="translate(347,39)"/>
<path d="M0 0 C-0.08750555 2.22988284 -0.19569061 4.45896005 -0.3125 6.6875 C-0.37050781 7.92886719 -0.42851562 9.17023437 -0.48828125 10.44921875 C-1.37622426 16.61059429 -5.20856065 20.7475694 -8.9375 25.5625 C-9.58235352 26.40844727 -9.58235352 26.40844727 -10.24023438 27.27148438 C-14.44832266 32.73114368 -18.77895742 36.67459408 -24.4375 40.5625 C-41.96754567 52.89404363 -57.41598606 67.62253342 -70 85 C-70.41701172 85.57266602 -70.83402344 86.14533203 -71.26367188 86.73535156 C-102.46623554 130.13174081 -113.81182146 184.3718309 -105.54345703 236.88867188 C-100.47948121 265.8802747 -89.46089919 294.17737784 -72 318 C-71.23171875 319.051875 -70.4634375 320.10375 -69.671875 321.1875 C-61.66744279 331.94648746 -52.58410964 341.63207329 -43 351 C-42.34 351.66 -41.68 352.32 -41 353 C-41.72775635 353.20044922 -42.4555127 353.40089844 -43.20532227 353.60742188 C-64.57435191 359.52360618 -85.79354956 365.75476098 -106 375 C-115.16503708 363.41741377 -122.24211129 351.11055118 -129 338 C-129.37753418 337.28682617 -129.75506836 336.57365234 -130.14404297 335.83886719 C-147.51108817 302.89939864 -154.46020247 265.28837401 -154.3125 228.375 C-154.31034485 227.40444672 -154.3081897 226.43389343 -154.30596924 225.43392944 C-154.2549334 211.10569102 -153.90758438 197.07814218 -151 183 C-150.80132324 182.01692871 -150.60264648 181.03385742 -150.39794922 180.02099609 C-138.89129151 124.69422767 -108.98766442 71.96940301 -64 37 C-62.52660156 35.81857422 -62.52660156 35.81857422 -61.0234375 34.61328125 C-17.52758625 0 -17.52758625 0 0 0 Z " fill="#FEDC3F" transform="translate(165,39)"/>
<path d="M0 0 C2.77188614 0.02143839 5.54118112 0.00013337 8.31298828 -0.02539062 C18.83112502 -0.04177835 27.8801469 0.25723565 36.59033203 6.83398438 C39.27783203 9.52148438 39.27783203 9.52148438 40.15283203 11.39648438 C41.32936153 13.82797866 42.01725147 14.98097291 44.27783203 16.52148438 C48.67463759 17.22018351 53.11308459 16.90891518 57.53955078 16.66992188 C61.27783203 16.52148438 61.27783203 16.52148438 63.27783203 17.52148438 C63.50470703 16.82023437 63.73158203 16.11898437 63.96533203 15.39648438 C67.3543376 7.97294837 72.64735035 3.97279866 80.24163818 1.09335327 C86.76732084 -0.73939705 93.86356688 -0.27130368 100.578125 -0.15087891 C103.40496328 -0.10347989 106.22803747 -0.10981534 109.05517578 -0.12304688 C119.44603499 -0.09132658 128.0700804 0.22669548 136.86376953 6.31054688 C144.44454931 14.08994971 146.90214797 21.59939279 146.82568359 32.40380859 C146.42077531 41.61873745 142.91013341 50.25399873 137.27783203 57.52148438 C136.72095703 58.34648437 136.16408203 59.17148438 135.59033203 60.02148438 C128.08251577 68.1380425 117.06046928 72.93538453 106.11376953 73.75976562 C93.07921442 74.03928769 82.68031209 70.49561116 73.11767578 61.48632812 C63.35748754 51.14235292 61.34403415 41.2388907 60.27783203 27.52148438 C55.65783203 27.52148438 51.03783203 27.52148438 46.27783203 27.52148438 C46.18501953 30.08929688 46.18501953 30.08929688 46.09033203 32.70898438 C45.04043322 44.90506921 40.13292746 55.2062591 31.14501953 63.48632812 C19.95679591 72.70589219 8.56704321 74.53065077 -5.72216797 73.52148438 C-16.46495922 71.35080455 -26.36929907 64.57588929 -32.51513672 55.52539062 C-39.26041041 44.32692654 -41.79332335 32.52332967 -39.10498047 19.54101562 C-36.36594689 11.72386228 -31.11670599 5.99831779 -23.72998047 2.32617188 C-16.13632527 -0.55340924 -8.00529776 -0.07371622 0 0 Z " fill="#1A2846" transform="translate(202.72216796875,157.478515625)"/>
<path d="M0 0 C1.11337907 0.9471043 2.22572736 1.89542041 3.33764648 2.84423828 C3.95719711 3.37220001 4.57674774 3.90016174 5.21507263 4.44412231 C7.57902832 6.50472487 9.80812432 8.69565109 12.0625 10.875 C26.54253433 24.06394759 43.4948857 29.81197044 62.90527344 29.12744141 C82.04319364 27.9631064 98.69902694 15.00358108 111.390625 1.6171875 C111.92171875 1.08351563 112.4528125 0.54984375 113 0 C113.33 0 113.66 0 114 0 C114.20919818 8.07571381 114.36877069 16.15028301 114.46630955 24.2280426 C114.51314249 27.97966685 114.57657506 31.72942838 114.67895508 35.47998047 C114.77727212 39.10467596 114.83066203 42.72758904 114.85389519 46.35351562 C114.87043396 47.73156796 114.90273497 49.10953036 114.95157051 50.48681641 C115.31726947 61.23504513 115.31726947 61.23504513 112.0614624 65.59736633 C109.80012106 67.64274546 107.56252984 69.35362134 105 71 C104.38569626 71.41763107 103.77139252 71.83526215 103.13847351 72.26554871 C99.2565765 74.76439987 95.08627299 76.85562701 91 79 C90.0821875 79.49757813 89.164375 79.99515625 88.21875 80.5078125 C72.23864997 88.54599535 51.69517739 89.56016102 34.72265625 84.38671875 C22.96317127 80.00621805 12.60917184 74.07935344 3 66 C2.46344284 65.59045578 1.92688568 65.18091156 1.37406921 64.75895691 C-0.65446493 62.16221425 -0.36011724 60.13957981 -0.34057617 56.8762207 C-0.34034958 55.61513992 -0.34012299 54.35405914 -0.33988953 53.05476379 C-0.32456963 51.67843268 -0.30892164 50.30210518 -0.29296875 48.92578125 C-0.2873726 47.51759798 -0.28310259 46.10940886 -0.28010559 44.70121765 C-0.26865818 40.99718056 -0.23919235 37.2934971 -0.20599365 33.58959961 C-0.17529026 29.80913069 -0.16159971 26.02860457 -0.14648438 22.24804688 C-0.11432216 14.83187014 -0.06312755 7.41598464 0 0 Z " fill="#EABE8D" transform="translate(199,313)"/>
<path d="M0 0 C0.09704224 1.20438721 0.09704224 1.20438721 0.19604492 2.43310547 C3.29365862 39.83313488 10.4944763 75.59954368 26.93359375 109.59375 C28 112 28 112 28 114 C6.45038034 109.69996121 -16.34821652 96.77522073 -34 84 C-34.60376465 83.56461914 -35.2075293 83.12923828 -35.82958984 82.68066406 C-54.56804114 69.10099556 -71.62622469 54.19881323 -86 36 C-87.01693143 34.82993066 -88.03702352 33.66258754 -89.0625 32.5 C-91 30 -91 30 -91 27 C-68.91180722 16.88819746 -46.13412961 9.86684487 -22.625 3.9375 C-21.83729218 3.73737305 -21.04958435 3.53724609 -20.23800659 3.33105469 C-17.98631442 2.76246668 -15.73217535 2.20515031 -13.4765625 1.65234375 C-12.80896408 1.48407578 -12.14136566 1.3158078 -11.45353699 1.1424408 C-7.55841154 0.20719664 -4.00151693 -0.16316191 0 0 Z " fill="#DAE2FD" transform="translate(151,386)"/>
<path d="M0 0 C-0.76183594 0.38478516 -0.76183594 0.38478516 -1.5390625 0.77734375 C-10.34125065 5.67294278 -13.94528779 12.97283403 -17.23828125 22.2265625 C-22.46364604 41.2522497 -18.43613797 61.42647066 -9.171875 78.4375 C-6.4075417 83.18067299 -2.95950436 87.20898519 1 91 C-2.24137735 94.51239552 -6.19161038 96.98085399 -10.11328125 99.671875 C-16.33646253 104.69084123 -20.24945408 110.63290271 -23.875 117.6875 C-24.30135742 118.50331543 -24.72771484 119.31913086 -25.16699219 120.15966797 C-28.24305703 126.17990076 -30.82077666 132.32001021 -33.25 138.625 C-37.58193376 149.80864622 -42.39488871 159.57295282 -53.8984375 164.875 C-56 165 -56 165 -58.67041016 163.51953125 C-62.5311189 161.75761226 -65.15792457 161.69314881 -69.375 161.8125 C-70.62023437 161.83957031 -71.86546875 161.86664063 -73.1484375 161.89453125 C-74.08945313 161.92933594 -75.03046875 161.96414062 -76 162 C-76.07526466 156.59638367 -76.12911695 151.19308547 -76.16479492 145.7890625 C-76.17969888 143.95827914 -76.20002914 142.12753027 -76.22631836 140.296875 C-76.3920994 128.43865457 -75.68079655 117.57409028 -73 106 C-72.73058594 104.74300293 -72.46117187 103.48600586 -72.18359375 102.19091797 C-68.33641641 84.77035514 -59.23339273 66.20157286 -46.5625 53.5 C-43.13722646 49.68891269 -42.99188854 45.34609614 -42.4140625 40.40625 C-41.04922088 29.17849631 -37.91989015 17.54759936 -29 10 C-28.47535156 9.53722656 -27.95070312 9.07445312 -27.41015625 8.59765625 C-23.84912671 6.23710345 -19.98475739 4.8772408 -16 3.375 C-15.19304687 3.06304688 -14.38609375 2.75109375 -13.5546875 2.4296875 C-3.85321861 -1.2844062 -3.85321861 -1.2844062 0 0 Z " fill="#223159" transform="translate(206,6)"/>
<path d="M0 0 C0.33 0 0.66 0 1 0 C1.18589511 7.44091532 1.32777113 14.88132506 1.41449738 22.32409763 C1.45613765 25.7807866 1.51254464 29.23587987 1.60351562 32.69165039 C1.70759391 36.67053679 1.74598235 40.64879207 1.78125 44.62890625 C1.82254028 45.86145645 1.86383057 47.09400665 1.90637207 48.36390686 C1.91075069 56.77460894 1.91075069 56.77460894 -0.71269226 60.30438232 C-2.72753874 62.10076441 -4.71068674 63.57576035 -7 65 C-7.58715286 65.39189011 -8.17430573 65.78378021 -8.7792511 66.18754578 C-12.70430917 68.6913655 -16.88717663 70.8220835 -21 73 C-22.37865234 73.74830078 -22.37865234 73.74830078 -23.78515625 74.51171875 C-39.77132595 82.54097141 -60.30124415 83.56125178 -77.27734375 78.38671875 C-88.93269611 74.04500827 -103.88086365 67.67870452 -111 57 C-109.83319702 56.94839722 -109.83319702 56.94839722 -108.64282227 56.89575195 C-73.73147117 55.24306781 -37.68039642 50.78606583 -12.25 24.25 C-6.1627871 17.25778554 -2.05383499 9.03687396 0 0 Z " fill="#F2D5AC" transform="translate(311,319)"/>
<path d="M0 0 C1.81653692 -0.01652133 3.63300986 -0.04376084 5.44921875 -0.08203125 C8.08098756 -0.13714432 10.71123562 -0.15872751 13.34350586 -0.17333984 C14.14588181 -0.19600922 14.94825775 -0.21867859 15.77494812 -0.24203491 C23.09187753 -0.21497077 27.87890631 2.67846685 32.98803711 7.78759766 C34.85044521 10.84194694 35.2808674 12.77697395 35.55053711 16.35009766 C35.61370117 17.08228516 35.67686523 17.81447266 35.74194336 18.56884766 C36.17060031 27.30791838 33.87084521 35.00690717 28.17553711 41.72509766 C26.98876476 42.95461393 25.78159997 44.16492968 24.55053711 45.35009766 C24.06584961 45.84380859 23.58116211 46.33751953 23.08178711 46.84619141 C16.48185707 53.02445925 8.4685689 53.93116086 -0.23852539 53.69775391 C-9.22070896 52.72523038 -17.47285412 48.19272345 -23.20727539 41.20947266 C-29.3778905 32.44541061 -30.42600886 23.93341458 -29.44946289 13.35009766 C-28.14907742 8.54014911 -26.27924547 6.01053685 -22.38696289 2.91259766 C-15.4191184 -0.79370261 -7.70685156 0.05131891 0 0 Z " fill="#203058" transform="translate(303.449462890625,167.64990234375)"/>
<path d="M0 0 C0.81740158 -0.0066568 1.63480316 -0.0133136 2.47697449 -0.02017212 C4.20248169 -0.03027128 5.92802773 -0.03498999 7.65356445 -0.03466797 C10.27426615 -0.03903136 12.89326884 -0.0753508 15.51367188 -0.11328125 C17.19660888 -0.11915223 18.87955381 -0.12311974 20.5625 -0.125 C21.33672806 -0.13937103 22.11095612 -0.15374207 22.90864563 -0.16854858 C28.48217509 -0.1224555 32.85342309 1.15336526 37.48046875 4.3359375 C43.21007454 11.38776001 43.17792324 18.5280836 42.48046875 27.3359375 C40.62868815 35.94783282 36.5687636 42.86100443 29.23828125 47.8671875 C19.99777622 53.21859109 10.81334395 55.18260289 0.28515625 52.53125 C-8.83971149 49.14734764 -15.89784248 43.45866995 -20.01953125 34.5234375 C-22.83402175 27.36994082 -24.02714519 19.415941 -21.80078125 11.9140625 C-19.44659415 6.86395146 -16.39911748 3.7983642 -11.3918457 1.25537109 C-7.59349862 0.03951261 -3.94805059 0.011261 0 0 Z " fill="#203058" transform="translate(195.51953125,167.6640625)"/>
<path d="M0 0 C0.54914063 0.56847656 1.09828125 1.13695312 1.6640625 1.72265625 C10.85544075 10.25627108 22.43096215 15.97648164 34.2890625 19.78515625 C35.36607422 20.15253906 35.36607422 20.15253906 36.46484375 20.52734375 C55.82860569 26.01687626 77.03674199 20.25614419 94.12255859 11.03759766 C99.9929053 7.64398952 105.49005147 3.58416728 110.2890625 -1.21484375 C117.55117245 -1.47960818 124.48671374 0.43900993 131.2890625 2.78515625 C126.01923197 16.26314707 105.8421952 27.06557689 93.2890625 32.66015625 C83.58546618 36.78806163 72.88256186 40.34452543 62.2890625 40.78515625 C61.14308594 40.83671875 59.99710937 40.88828125 58.81640625 40.94140625 C30.22801886 41.79256777 4.85860244 30.2457706 -15.80078125 10.93359375 C-20.64092032 6.22243455 -20.64092032 6.22243455 -22.7109375 3.78515625 C-22.7109375 3.12515625 -22.7109375 2.46515625 -22.7109375 1.78515625 C-20.14944122 1.27947896 -17.58694285 0.78045493 -15.0234375 0.28515625 C-14.30220703 0.14207031 -13.58097656 -0.00101562 -12.83789062 -0.1484375 C-2.89467959 -2.05535469 -2.89467959 -2.05535469 0 0 Z " fill="#DAE1FD" transform="translate(201.7109375,377.21484375)"/>
<path d="M0 0 C1.30508011 -0.00960754 2.61016022 -0.01921509 3.95478821 -0.02911377 C5.38676784 -0.033962 6.8187495 -0.03824076 8.25073242 -0.04199219 C9.71563214 -0.04774413 11.18053184 -0.05350186 12.64543152 -0.05926514 C15.71967927 -0.06977689 18.79390086 -0.07561813 21.86816406 -0.07910156 C25.80248606 -0.08458098 29.73646104 -0.10859607 33.67067432 -0.13707352 C36.69818623 -0.15572386 39.72561505 -0.1609068 42.75317955 -0.16243744 C44.20322246 -0.16546006 45.65326404 -0.17347545 47.1032505 -0.18662262 C49.13516998 -0.20372818 51.16723257 -0.19995154 53.19921875 -0.1953125 C54.35456619 -0.19895813 55.50991364 -0.20260376 56.70027161 -0.20635986 C60.17499152 0.20642927 62.01299501 1.06858053 64.79370117 3.16113281 C67.2683011 6.87303271 66.99427092 8.36702562 66.39135742 12.62207031 C64.4608784 20.82345177 60.45618464 26.19692945 53.79370117 31.16113281 C53.17624023 30.7628125 52.5587793 30.36449219 51.92260742 29.95410156 C40.88185453 23.04732921 30.84145845 20.46718091 17.79370117 22.16113281 C13.49442303 23.36359462 9.70972252 25.03443199 5.79370117 27.16113281 C5.03831055 27.56460937 4.28291992 27.96808594 3.50463867 28.38378906 C1.91129002 29.26933542 0.34739744 30.20772829 -1.20629883 31.16113281 C-7.87171067 24.4633646 -12.16905154 18.26936684 -13.76879883 8.84863281 C-12.9820967 5.08994485 -11.10526746 3.57694001 -8.20629883 1.16113281 C-5.41895988 -0.23253666 -3.11858158 0.0184687 0 0 Z " fill="#182644" transform="translate(229.206298828125,259.8388671875)"/>
<path d="M0 0 C4.30712773 3.33802399 6.07318968 6.3803175 6.953125 11.65234375 C7.69169707 24.96342666 2.28001839 39.25867667 -5.5 49.9375 C-6.11875 50.78699219 -6.7375 51.63648438 -7.375 52.51171875 C-13.45792516 60.45991588 -20.50165874 67.3538379 -29.5 71.9375 C-30.16 71.9375 -30.82 71.9375 -31.5 71.9375 C-31.24605469 70.7515625 -30.99210937 69.565625 -30.73046875 68.34375 C-26.01928272 46.23794591 -22.43377026 24.54456953 -21.5 1.9375 C-14.49193972 -2.00453391 -7.68156664 -2.33190416 0 0 Z " fill="#F2D5AB" transform="translate(382.5,168.0625)"/>
<path d="M0 0 C4.91666667 1.91666667 4.91666667 1.91666667 7 4 C7.09696711 5.92425852 7.18579895 7.84918812 7.23925781 9.77514648 C7.85804038 31.21183719 11.53342078 52.29869181 17 73 C2.4341592 67.77729312 -8.38500945 54.54939654 -15 41 C-19.46243439 30.79247337 -23.90506498 18.83816065 -20.26171875 7.75390625 C-15.95211213 -0.77663197 -8.50882565 -0.8853778 0 0 Z " fill="#EABE8C" transform="translate(144,167)"/>
<path d="M0 0 C1.28648437 -0.00128906 2.57296875 -0.00257813 3.8984375 -0.00390625 C9.20713456 0.80297119 12.25147835 3.15185615 15.9375 6.9375 C17.92901674 10.03541494 18.34784081 11.89014078 18.625 15.5625 C18.68816406 16.2946875 18.75132812 17.026875 18.81640625 17.78125 C19.24739651 26.56789014 16.91798895 34.25604029 11.1875 41 C10.0213235 42.20844729 8.83549912 43.39845344 7.625 44.5625 C6.325625 45.8309375 6.325625 45.8309375 5 47.125 C2.625 48.5625 2.625 48.5625 0.1875 48.75 C-6.18082753 45.79882383 -9.92553682 38.89813073 -12.375 32.5625 C-15.23937257 23.28583883 -15.29883417 14.53753859 -11.375 5.5625 C-8.27178226 0.35615366 -5.94403158 -0.10084684 0 0 Z " fill="#2C3B6A" transform="translate(320.375,168.4375)"/>
<path d="M0 0 C1.06637695 0.02320313 1.06637695 0.02320313 2.15429688 0.046875 C2.85361328 0.03140625 3.55292969 0.0159375 4.2734375 0 C9.37239656 0.03815872 12.29315709 1.23987794 16.34179688 4.546875 C21.18941879 11.23325005 20.97518938 18.54803245 20.34179688 26.546875 C18.39899242 35.58208609 13.91896029 41.95053232 6.71679688 47.609375 C3.68548686 48.80594474 2.4227549 48.57539841 -0.65820312 47.546875 C-8.58022731 39.42172199 -11.7474142 31.0971674 -12.03320312 19.984375 C-11.84904514 11.23248603 -10.70947772 0.08059814 0 0 Z " fill="#2C3B6A" transform="translate(217.658203125,168.453125)"/>
<path d="M0 0 C6.06831277 2.27561729 9.5670541 9.21429141 12.875 14.5625 C13.29007812 15.19220703 13.70515625 15.82191406 14.1328125 16.47070312 C16.26605697 19.93011457 16.9991942 21.73458958 17.0078125 25.91015625 C15.86020463 29.57093639 15.24699587 30.25449661 12 32.125 C7.71185282 32.77707437 3.39498207 32.63443382 -0.9375 32.625 C-2.11763672 32.65335938 -3.29777344 32.68171875 -4.51367188 32.7109375 C-13.06901546 32.73030444 -13.06901546 32.73030444 -17.31640625 29.96875 C-19.39277561 26.46156464 -19.79199711 25.1384332 -19 21.125 C-17.52234511 18.07152694 -15.71049157 15.306786 -13.8125 12.5 C-13.32974609 11.74976563 -12.84699219 10.99953125 -12.34960938 10.2265625 C-5.75370105 0.23973754 -5.75370105 0.23973754 0 0 Z " fill="#F3D6AC" transform="translate(257,209.875)"/>
<path d="M0 0 C0.44988281 0.31453125 0.89976562 0.6290625 1.36328125 0.953125 C-0.08956771 4.76786808 -1.79803716 5.88117404 -5.44921875 7.578125 C-6.30128906 7.98289062 -7.15335937 8.38765625 -8.03125 8.8046875 C-8.89105469 9.18367188 -9.75085938 9.56265625 -10.63671875 9.953125 C-11.36890625 10.324375 -12.10109375 10.695625 -12.85546875 11.078125 C-21.93588244 13.93488436 -35.149982 13.40964902 -43.6484375 9.16796875 C-44.30457031 8.76707031 -44.96070313 8.36617188 -45.63671875 7.953125 C-46.34441406 7.52128906 -47.05210937 7.08945312 -47.78125 6.64453125 C-49.76171875 5.328125 -49.76171875 5.328125 -52.63671875 2.953125 C-52.63671875 2.293125 -52.63671875 1.633125 -52.63671875 0.953125 C-49.49200282 -1.36030332 -46.06182892 -3.18270038 -42.63671875 -5.046875 C-41.72212891 -5.57087891 -41.72212891 -5.57087891 -40.7890625 -6.10546875 C-27.61304037 -12.37833578 -11.35921939 -7.55763695 0 0 Z " fill="#FC4255" transform="translate(281.63671875,289.046875)"/>
<path d="M0 0 C1.27617187 -0.03738281 2.55234375 -0.07476562 3.8671875 -0.11328125 C14.40763456 -0.21230424 14.40763456 -0.21230424 18.0703125 2.6796875 C20.80945012 6.06679316 21.40531935 8.02605832 21.25 12.375 C19.48358828 15.17689446 18.21950178 16.89024911 15.25 18.375 C10.86153515 18.63312405 6.46931056 18.6460009 2.07421875 18.67016602 C-0.1100131 18.68738187 -2.29273175 18.73127034 -4.4765625 18.77539062 C-5.86717638 18.78551777 -7.25780311 18.79403381 -8.6484375 18.80078125 C-9.91349121 18.81536377 -11.17854492 18.82994629 -12.48193359 18.8449707 C-16.30986637 18.29448732 -17.42396889 17.39042042 -19.75 14.375 C-21.19430855 11.48638291 -21.12688506 9.57852299 -20.75 6.375 C-14.59488929 -0.91394689 -9.03705924 0.09920923 0 0 Z " fill="#1C2A47" transform="translate(306.75,130.625)"/>
<path d="M0 0 C0.69275528 -0.00619858 1.38551056 -0.01239716 2.09925842 -0.01878357 C3.56086831 -0.02587032 5.02255912 -0.02272748 6.48413086 -0.01000977 C8.71294805 0.0038459 10.93755373 -0.030205 13.16601562 -0.06835938 C14.58984477 -0.0693108 16.01367914 -0.06745046 17.4375 -0.0625 C18.72648193 -0.0632251 20.01546387 -0.0639502 21.34350586 -0.06469727 C25.64271396 0.72365862 27.12386343 2.16508149 29.78515625 5.56640625 C30.39819891 9.2446622 30.04637826 11.03208851 28.41015625 14.37890625 C26.78515625 16.56640625 26.78515625 16.56640625 24.78515625 17.56640625 C20.27320664 17.87167783 15.75785627 17.92268718 11.23706055 17.97143555 C9.73259517 17.99300901 8.22825511 18.02710563 6.72436523 18.07397461 C4.55005156 18.14109338 2.37832932 18.16844663 0.203125 18.1875 C-1.09858643 18.21255615 -2.40029785 18.2376123 -3.74145508 18.26342773 C-7.28630516 17.55206575 -7.91298597 17.2947172 -10.17456055 14.75415039 C-12.21484375 11.56640625 -12.21484375 11.56640625 -12.27734375 7.94140625 C-10.13241363 1.12809881 -6.87084722 0.05802717 0 0 Z " fill="#182645" transform="translate(196.21484375,131.43359375)"/>
</svg>
