<?xml version="1.0" encoding="UTF-8"?>
<svg version="1.1" xmlns="http://www.w3.org/2000/svg" width="835" height="679">
<path d="M0 0 C0.68336426 0.18433594 1.36672852 0.36867188 2.07080078 0.55859375 C12.02313853 3.29755266 20.85383185 7.16397648 30 12 C31.26704799 12.62614409 32.53663616 13.24717174 33.80859375 13.86328125 C34.43685059 14.1689502 35.06510742 14.47461914 35.71240234 14.78955078 C37.45497945 15.63531465 39.19817278 16.47980855 40.94140625 17.32421875 C43.9336553 18.96365022 46.35934094 20.85587513 49 23 C49.99 23.33 50.98 23.66 52 24 C52 24.66 52 25.32 52 26 C52.763125 26.28875 53.52625 26.5775 54.3125 26.875 C57 28 57 28 60 30 C60 30.66 60 31.32 60 32 C60.61875 32.309375 61.2375 32.61875 61.875 32.9375 C63.25 33.625 64.625 34.3125 66 35 C66 35.66 66 36.32 66 37 C66.87398437 37.36544922 66.87398437 37.36544922 67.765625 37.73828125 C71.10404348 39.62343714 73.17471588 42.49740077 75.609375 45.41796875 C78.56768634 47.37567478 80.39312693 47.10618183 83.81347656 46.48217773 C84.5350293 46.32305908 85.25658203 46.16394043 86 46 C87.05525879 45.78355835 87.05525879 45.78355835 88.13183594 45.56274414 C119.2242171 38.8200278 155.10646951 27.33598612 181.3125 8.6875 C184 7 184 7 188 7 C183.77450056 22.52785162 176.59478789 36.75986242 168.34375 50.515625 C167.74336914 51.51770996 167.74336914 51.51770996 167.13085938 52.54003906 C166.57108398 53.26271973 166.57108398 53.26271973 166 54 C165.34 54 164.68 54 164 54 C163.61328125 54.82757813 163.61328125 54.82757813 163.21875 55.671875 C161.82036875 58.34314175 160.21236695 60.76851909 158.5 63.25 C157.8915625 64.14203125 157.283125 65.0340625 156.65625 65.953125 C156.1096875 66.62859375 155.563125 67.3040625 155 68 C154.34 68 153.68 68 153 68 C152.72671875 68.58910156 152.4534375 69.17820312 152.171875 69.78515625 C149.11412654 75.56430084 144.17808848 80.11643364 139 84 C138.34 84 137.68 84 137 84 C136.67 84.99 136.34 85.98 136 87 C134.22265625 88.60546875 134.22265625 88.60546875 132.0625 90.1875 C131.35222656 90.71730469 130.64195312 91.24710937 129.91015625 91.79296875 C128 93 128 93 126 93 C126 93.66 126 94.32 126 95 C125.01 95 124.02 95 123 95 C123 95.66 123 96.32 123 97 C121.68 97.66 120.36 98.32 119 99 C125.93588902 99.42464627 132.37692814 97.8598034 139.125 96.375 C140.36386963 96.10574707 141.60273926 95.83649414 142.87915039 95.55908203 C152.98064877 93.31864402 162.91817733 90.67897495 172.81396484 87.6640625 C174.82638941 87.05273853 176.84313851 86.4602106 178.86328125 85.875 C185.16033502 84.01566232 191.07723264 81.82554039 197 79 C198.60063311 78.24248806 200.20480831 77.49241372 201.8125 76.75 C202.52019531 76.41484375 203.22789062 76.0796875 203.95703125 75.734375 C206 75 206 75 210 75 C209.36567062 78.16451962 208.26817072 80.51687779 206.5625 83.25 C206.13066406 83.95640625 205.69882812 84.6628125 205.25390625 85.390625 C204.84011719 85.92171875 204.42632813 86.4528125 204 87 C203.34 87 202.68 87 202 87 C201.75378906 87.71929687 201.50757813 88.43859375 201.25390625 89.1796875 C199.85523354 92.32561179 198.15960297 94.49923458 195.9375 97.125 C192.16405048 101.60747704 192.16405048 101.60747704 188.4765625 106.16015625 C187.28160156 107.65869141 187.28160156 107.65869141 186.0625 109.1875 C185.33160156 110.10917969 184.60070312 111.03085938 183.84765625 111.98046875 C183.23792969 112.64691406 182.62820313 113.31335938 182 114 C181.34 114 180.68 114 180 114 C179.7525 114.556875 179.505 115.11375 179.25 115.6875 C177.77075182 118.42410913 176.06532561 120.67650869 174 123 C173.34 123 172.68 123 172 123 C172 123.66 172 124.32 172 125 C170.625 126.625 170.625 126.625 169 128 C168.34 128 167.68 128 167 128 C166.67 128.99 166.34 129.98 166 131 C165.34 131 164.68 131 164 131 C164 131.66 164 132.32 164 133 C162.625 134.625 162.625 134.625 161 136 C160.34 136 159.68 136 159 136 C159 136.66 159 137.32 159 138 C157.5390625 139.5078125 157.5390625 139.5078125 155.625 141.125 C154.68527344 141.93324219 154.68527344 141.93324219 153.7265625 142.7578125 C152 144 152 144 150 144 C150 144.66 150 145.32 150 146 C148.26953125 147.59375 148.26953125 147.59375 145.8125 149.5 C144.94286621 150.19996094 144.07323242 150.89992187 143.17724609 151.62109375 C140 154 140 154 136.62817383 155.88867188 C132.23052434 158.44471863 127.95866299 161.09623757 126.2973938 166.12817383 C125.41464946 171.40941657 125.56285935 176.70700059 125.76452637 182.04165649 C125.91508624 186.07345858 125.9196 190.10172576 125.93310547 194.13594055 C125.94124317 196.17804505 125.95654235 198.22013356 125.97900391 200.26213074 C126.06706462 209.16948137 125.60107119 217.94933495 124.75 226.8125 C124.65384903 227.83321091 124.65384903 227.83321091 124.55575562 228.87454224 C120.96633866 266.17509802 114.06463897 304.40520655 100.90185547 339.57421875 C99.71291296 342.7721973 98.67048745 346.00231557 97.625 349.25 C95.31161481 356.29489901 92.63510649 363.17167594 89.80908203 370.02587891 C88.96338337 372.0893428 88.13493697 374.15918355 87.30859375 376.23046875 C83.62492316 385.40698672 79.52131598 394.20097342 75 403 C74.35150905 404.30988555 73.70575765 405.62113031 73.0625 406.93359375 C69.24833924 414.70231382 65.2224386 422.27655294 60.87109375 429.7578125 C59.1688305 432.70745446 57.54152094 435.68368359 55.9375 438.6875 C53.49460241 443.18791828 50.85825644 447.51415993 48.0703125 451.80859375 C46.42030831 454.35209078 44.79479898 456.90706832 43.1796875 459.47265625 C42.18249255 461.0443983 41.18509658 462.61601284 40.1875 464.1875 C39.70708252 464.95529785 39.22666504 465.7230957 38.73168945 466.51416016 C38.27753662 467.22491699 37.82338379 467.93567383 37.35546875 468.66796875 C36.94965576 469.31016357 36.54384277 469.9523584 36.12573242 470.61401367 C35.56849487 471.3000769 35.56849487 471.3000769 35 472 C34.34 472 33.68 472 33 472 C32.64035156 473.03447266 32.64035156 473.03447266 32.2734375 474.08984375 C30.76553069 477.5358271 28.78048721 480.50184904 26.625 483.5625 C26.04492188 484.40844727 26.04492188 484.40844727 25.453125 485.27148438 C23.20218933 488.50059511 20.81538424 491.26282088 18 494 C16.60258629 495.66898657 15.22789895 497.35723003 13.875 499.0625 C13.19179688 499.91972656 12.50859375 500.77695312 11.8046875 501.66015625 C10.46990252 503.39075409 9.21232387 505.18151419 8 507 C7.34 507 6.68 507 6 507 C5.773125 507.53109375 5.54625 508.0621875 5.3125 508.609375 C3.56630711 511.78994062 1.31938714 514.47998907 -1 517.25 C-1.67675781 518.08144531 -1.67675781 518.08144531 -2.3671875 518.9296875 C-3.53073029 520.32731582 -4.76094738 521.66885563 -6 523 C-6.66 523 -7.32 523 -8 523 C-8.33 523.99 -8.66 524.98 -9 526 C-9.66 526 -10.32 526 -11 526 C-11.2475 526.5775 -11.495 527.155 -11.75 527.75 C-13.18299988 530.32939979 -14.78424676 532.06121592 -17 534 C-17.66 534 -18.32 534 -19 534 C-19.2578125 534.58265625 -19.515625 535.1653125 -19.78125 535.765625 C-21.09834017 538.1802903 -22.55088384 539.81740177 -24.5 541.75 C-25.1084375 542.36359375 -25.716875 542.9771875 -26.34375 543.609375 C-28 545 -28 545 -30 545 C-30.268125 545.639375 -30.53625 546.27875 -30.8125 546.9375 C-32 549 -32 549 -35 550 C-35 550.66 -35 551.32 -35 552 C-36.71332754 553.58533702 -38.49689047 555.09541215 -40.3125 556.5625 C-41.29863281 557.36816406 -42.28476562 558.17382812 -43.30078125 559.00390625 C-46 561 -46 561 -49 562 C-49 562.66 -49 563.32 -49 564 C-50.66898675 565.56668459 -52.41196756 567.055181 -54.1875 568.5 C-55.15042969 569.2940625 -56.11335937 570.088125 -57.10546875 570.90625 C-60 573 -60 573 -62.80078125 574.09375 C-63.52652344 574.3928125 -64.25226562 574.691875 -65 575 C-65.33 575.99 -65.66 576.98 -66 578 C-67.55053711 579.3503418 -67.55053711 579.3503418 -69.52734375 580.69921875 C-70.23697266 581.18583984 -70.94660156 581.67246094 -71.67773438 582.17382812 C-72.42345703 582.67333984 -73.16917969 583.17285156 -73.9375 583.6875 C-74.67935547 584.19861328 -75.42121094 584.70972656 -76.18554688 585.23632812 C-81.72804364 589 -81.72804364 589 -84 589 C-84 589.66 -84 590.32 -84 591 C-86.01953125 592.48046875 -86.01953125 592.48046875 -88.8125 594.1875 C-93.83114239 597.27789299 -98.77153664 600.46373426 -103.6875 603.71484375 C-106 605 -106 605 -109 605 C-109 605.66 -109 606.32 -109 607 C-117.88891946 612.0909266 -126.81197936 616.9893986 -136.0078125 621.50390625 C-138.37253121 622.68626561 -140.66122943 623.90952956 -142.9375 625.25 C-145.54404406 626.73945375 -148.12748183 627.93463789 -150.88745117 629.09863281 C-153.27460608 630.11716696 -155.64275777 631.17422123 -158.01171875 632.234375 C-169.78716183 637.46986858 -181.59133727 642.16642351 -193.81054688 646.25488281 C-195.82804903 646.94148145 -197.82957769 647.65874285 -199.828125 648.3984375 C-206.91039525 651.0185599 -213.9971681 653.16525822 -221.3125 655.0390625 C-224.7356935 655.93112352 -228.11253886 656.91963307 -231.5 657.9375 C-237.80183316 659.75133821 -244.15756548 661.22107233 -250.5625 662.625 C-251.49578125 662.83116943 -252.4290625 663.03733887 -253.390625 663.24975586 C-259.47376141 664.5568454 -265.56687354 665.59961356 -271.72094727 666.51318359 C-274.90525689 666.9859342 -278.083291 667.48936327 -281.26171875 668 C-283.40358415 668.33372948 -285.54551145 668.66706189 -287.6875 669 C-288.69876953 669.165 -289.71003906 669.33 -290.75195312 669.5 C-312.37695075 672.8169559 -334.19192113 673.35513411 -356.02954102 673.31567383 C-358.79272793 673.31105284 -361.55547341 673.31795368 -364.31860352 673.33618164 C-391.10690909 673.51105545 -417.57637576 671.65099561 -444 667 C-444.98742187 666.82742676 -445.97484375 666.65485352 -446.9921875 666.47705078 C-497.06433752 657.59352906 -547.42010312 641.61949645 -591.515625 615.96484375 C-597.20204501 612.7063883 -603.10851818 609.86515833 -609 607 C-609 606.34 -609 605.68 -609 605 C-609.53109375 604.90589844 -610.0621875 604.81179688 -610.609375 604.71484375 C-613.78408301 603.76554381 -616.38726699 602.22551277 -619.25 600.5625 C-620.86648438 599.63630859 -620.86648438 599.63630859 -622.515625 598.69140625 C-623.33546875 598.13324219 -624.1553125 597.57507813 -625 597 C-625 596.34 -625 595.68 -625 595 C-624.06994141 595.04543945 -624.06994141 595.04543945 -623.12109375 595.09179688 C-604.40288726 595.97730155 -585.73352431 596.22392766 -567 596 C-566.10297363 595.99274902 -565.20594727 595.98549805 -564.28173828 595.97802734 C-541.95243241 595.70316211 -518.2572293 592.0692622 -496.90966797 585.57763672 C-493.89240929 584.66497576 -490.84980013 583.84313014 -487.8125 583 C-485.53972305 582.33998983 -483.26895319 581.6730378 -481 581 C-480.33838867 580.8040625 -479.67677734 580.608125 -478.99511719 580.40625 C-471.86773143 578.28164502 -464.84216212 576.15108932 -458.109375 572.94921875 C-455.75881131 571.89146509 -453.37859921 571.07694041 -450.9375 570.25 C-444.03851493 567.78402063 -437.61222996 564.46508679 -431.11914062 561.09863281 C-429.71884101 560.37267103 -428.31652247 559.6505889 -426.91210938 558.93261719 C-411.54395429 551.07570191 -396.79444141 542.39517525 -383 532 C-380.67403907 530.3227598 -378.33754551 528.66111293 -376 527 C-376.68811768 526.90501221 -377.37623535 526.81002441 -378.08520508 526.7121582 C-392.65158255 524.6700294 -406.94384106 522.40799064 -421 518 C-421.66580078 517.79181641 -422.33160156 517.58363281 -423.01757812 517.36914062 C-438.10035909 512.50131161 -454.66092346 505.04287046 -467 495 C-467 494.34 -467 493.68 -467 493 C-467.5969165 492.88374268 -468.19383301 492.76748535 -468.80883789 492.64770508 C-472.32098268 491.60951899 -474.74206819 489.06872148 -477.4375 486.6875 C-478.56069065 485.71165542 -479.68438131 484.73638601 -480.80859375 483.76171875 C-481.3495166 483.28903564 -481.89043945 482.81635254 -482.44775391 482.3293457 C-483.8262938 481.14876223 -485.24841291 480.01949468 -486.67578125 478.8984375 C-488.94134961 477.04790604 -490.83107575 475.14086656 -492.75 472.9375 C-493.34296875 472.26589844 -493.9359375 471.59429687 -494.546875 470.90234375 C-496 469 -496 469 -497 466 C-497.99 465.67 -498.98 465.34 -500 465 C-501.7041249 462.86471097 -503.27089737 460.74737212 -504.8125 458.5 C-505.25319824 457.86795654 -505.69389648 457.23591309 -506.14794922 456.5847168 C-507.02992191 455.31605289 -507.9082389 454.04483901 -508.78271484 452.77099609 C-509.84060683 451.23189692 -510.91317094 449.70290257 -511.98828125 448.17578125 C-516 442.38320406 -516 442.38320406 -516 439 C-516.66 439 -517.32 439 -518 439 C-531 412.24679898 -531 412.24679898 -531 405 C-529.62476865 405.14363527 -528.24982598 405.29003517 -526.875 405.4375 C-526.10929688 405.51871094 -525.34359375 405.59992188 -524.5546875 405.68359375 C-522.7996744 405.90095776 -521.05145397 406.1790539 -519.3137207 406.50708008 C-512.70991233 407.48940448 -505.97913122 407.24180113 -499.3125 407.25 C-498.13738861 407.25300613 -498.13738861 407.25300613 -496.9385376 407.256073 C-485.11696647 407.26350223 -473.53220067 406.87560042 -462 404 C-461.67 403.67 -461.34 403.34 -461 403 C-462.00675781 402.731875 -463.01351562 402.46375 -464.05078125 402.1875 C-480.06298789 397.78443234 -494.94797415 391.78942436 -508.99609375 382.8828125 C-511.30062266 381.43836135 -513.54087544 380.14799427 -516 379 C-516 378.34 -516 377.68 -516 377 C-516.763125 376.71125 -517.52625 376.4225 -518.3125 376.125 C-521 375 -521 375 -524 373 C-524 372.34 -524 371.68 -524 371 C-524.99 371 -525.98 371 -527 371 C-528.70884005 369.37660195 -530.37446717 367.70680947 -532 366 C-532.99 365.34 -533.98 364.68 -535 364 C-535 363.34 -535 362.68 -535 362 C-535.58265625 361.7421875 -536.1653125 361.484375 -536.765625 361.21875 C-539.1802903 359.90165983 -540.81740177 358.44911616 -542.75 356.5 C-543.36359375 355.8915625 -543.9771875 355.283125 -544.609375 354.65625 C-546 353 -546 353 -546 351 C-546.66 351 -547.32 351 -548 351 C-554.05309195 344.56949704 -564.6383015 332.94830442 -566 324 C-566.66 324 -567.32 324 -568 324 C-569.58533781 320.68845579 -571.16789426 317.37558941 -572.75 314.0625 C-573.1934375 313.13630859 -573.636875 312.21011719 -574.09375 311.25585938 C-582.12421767 294.4273058 -582.12421767 294.4273058 -584.5625 285.875 C-584.77229492 285.14635742 -584.98208984 284.41771484 -585.19824219 283.66699219 C-589.93580646 266.82637464 -591.20107225 250.40392025 -591 233 C-585.84951956 233.63470567 -581.56284504 235.98516747 -576.9375 238.1875 C-566.87619221 242.84129467 -556.71413995 246.20561444 -546 249 C-544.99815674 249.26683594 -544.99815674 249.26683594 -543.97607422 249.5390625 C-535.56272659 251.73441699 -527.67853619 252.38923667 -519 252 C-519.78503906 251.41992188 -520.57007813 250.83984375 -521.37890625 250.2421875 C-536.48714558 239.00833101 -536.48714558 239.00833101 -541 234 C-541 233.34 -541 232.68 -541 232 C-541.66 232 -542.32 232 -543 232 C-546 228.53846154 -546 228.53846154 -546 226 C-546.99 225.67 -547.98 225.34 -549 225 C-549 224.34 -549 223.68 -549 223 C-549.66 223 -550.32 223 -551 223 C-552.59695712 221.03451431 -554.0572844 219.07552432 -555.5 217 C-555.94069824 216.37061523 -556.38139648 215.74123047 -556.83544922 215.09277344 C-558.23755706 213.07099067 -559.62205146 211.03831656 -561 209 C-561.43473633 208.35869141 -561.86947266 207.71738281 -562.31738281 207.05664062 C-574.52736101 188.83916746 -582.83999466 168.55211807 -587 147 C-587.20520264 145.98752197 -587.20520264 145.98752197 -587.41455078 144.95458984 C-595.2049603 105.51070128 -589.04566913 60.17413756 -567 26 C-564.58636996 26.38352172 -563.3208419 26.64464894 -561.65625 28.48828125 C-561.2746875 29.09027344 -560.893125 29.69226562 -560.5 30.3125 C-558.98324604 32.60406635 -557.65283863 34.34716137 -555.6875 36.3125 C-554 38 -554 38 -554 40 C-552.515 40.495 -552.515 40.495 -551 41 C-551 41.66 -551 42.32 -551 43 C-550.34 43 -549.68 43 -549 43 C-547.66015625 44.328125 -547.66015625 44.328125 -546.0625 46.25 C-542.8913729 49.97291651 -539.66537254 53.63264426 -536.375 57.25 C-535.9200415 57.75692383 -535.46508301 58.26384766 -534.99633789 58.78613281 C-532.20195485 61.85332376 -529.28128534 64.46824684 -526 67 C-524.31066078 68.6436814 -522.64740076 70.3142876 -521 72 C-519.62808628 73.39886684 -518.2528783 74.79450786 -516.875 76.1875 C-516.21242188 76.86167969 -515.54984375 77.53585938 -514.8671875 78.23046875 C-512.92056683 80.17553358 -512.92056683 80.17553358 -510 82 C-510 82.66 -510 83.32 -510 84 C-509.46503906 84.226875 -508.93007813 84.45375 -508.37890625 84.6875 C-505.24329742 86.41749108 -502.64129446 88.67772255 -499.9375 91 C-497.03273177 93.47665988 -494.18317651 95.87788233 -491 98 C-491 98.66 -491 99.32 -491 100 C-490.47664062 100.23332031 -489.95328125 100.46664062 -489.4140625 100.70703125 C-486.20188909 102.42746717 -483.3156729 104.54893748 -480.375 106.6875 C-479.12784951 107.58627804 -477.8804519 108.48471326 -476.6328125 109.3828125 C-476.01954102 109.8252832 -475.40626953 110.26775391 -474.77441406 110.72363281 C-472.27767638 112.51958006 -469.76648604 114.29435674 -467.25 116.0625 C-466.08210938 116.88427734 -466.08210938 116.88427734 -464.890625 117.72265625 C-463.0313281 119.03856821 -463.0313281 119.03856821 -461 120 C-461 120.66 -461 121.32 -461 122 C-460.01 122 -459.02 122 -458 122 C-458 122.66 -458 123.32 -458 124 C-457.2884375 124.26039063 -456.576875 124.52078125 -455.84375 124.7890625 C-452.8314491 126.07177305 -450.26110661 127.61590788 -447.5 129.375 C-425.99776548 142.85761969 -403.30311868 155.92767426 -379.5324707 165.01098633 C-376.84780987 166.05943529 -374.19706418 167.1733664 -371.54296875 168.296875 C-364.96123341 171.04533057 -358.31329595 173.58616438 -351.625 176.0625 C-350.4376123 176.50223145 -349.25022461 176.94196289 -348.02685547 177.39501953 C-341.06728052 179.94600412 -334.15121648 182.3083531 -326.984375 184.20703125 C-322.78621474 185.32251101 -318.66090409 186.6520676 -314.5234375 187.97265625 C-305.43427295 190.62282286 -296.21956912 192.65666789 -286.9375 194.5 C-285.95845703 194.69980469 -284.97941406 194.89960938 -283.97070312 195.10546875 C-267.3441352 198.42866565 -250.68370143 200.59051007 -233.8125 202.1875 C-231.97195461 202.36601552 -230.13145946 202.5450499 -228.29101562 202.72460938 C-223.86122992 203.15568642 -219.4308363 203.57986492 -215 204 C-216.26873333 196.27882221 -216.26873333 196.27882221 -217.6328125 188.57421875 C-224.59950736 147.71400049 -212.83751633 102.65825114 -189.25 68.875 C-187.83908292 66.91252022 -186.42310453 64.95366 -185 63 C-184.02040867 61.56278936 -183.0411552 60.12534826 -182.0625 58.6875 C-181.381875 57.800625 -180.70125 56.91375 -180 56 C-179.34 56 -178.68 56 -178 56 C-177.74476563 55.42894531 -177.48953125 54.85789063 -177.2265625 54.26953125 C-173.27626188 46.96021705 -166.32559243 41.228434 -160 36 C-159.05125 35.195625 -158.1025 34.39125 -157.125 33.5625 C-155 32 -155 32 -153 32 C-152.67 31.01 -152.34 30.02 -152 29 C-150.4765625 27.61328125 -150.4765625 27.61328125 -148.625 26.3125 C-148.01914062 25.87550781 -147.41328125 25.43851563 -146.7890625 24.98828125 C-145 24 -145 24 -142 24 C-142 23.34 -142 22.68 -142 22 C-126.42143276 12.67319057 -110.56207023 4.7687435 -93 0 C-91.70570546 -0.37231344 -90.4114347 -0.74470953 -89.1171875 -1.1171875 C-60.27675629 -9.14601231 -28.70979201 -7.83792863 0 0 Z " fill="#FEFEFE" transform="translate(625,6)"/>
</svg>
